<svg xmlns="http://www.w3.org/2000/svg" viewBox="0 0 25.42 16"><defs><style>.cls-1{fill:#a1a1a1;}</style></defs><g id="Layer_2" data-name="Layer 2"><g id="Layer_1-2" data-name="Layer 1"><path class="cls-1" d="M13.38,10.67a4.29,4.29,0,0,0-.51-1.6,3.43,3.43,0,0,0-.8-1A4,4,0,0,0,11,7.46l-.38-.14s0,0,0,0,0,0,0,0l.13-.07a4,4,0,0,0,1.13-.87,3.16,3.16,0,0,0,.62-1.1,3.72,3.72,0,0,0,.18-1,5.79,5.79,0,0,0,0-.93,3.55,3.55,0,0,0-.42-1.35A3,3,0,0,0,11.42,1a4,4,0,0,0-1.1-.6A7.06,7.06,0,0,0,8.56,0c-.24,0-.49,0-.73,0H0V16S0,16,0,16H8.37c.15,0,.31,0,.46,0a9.46,9.46,0,0,0,1.06-.21,6.42,6.42,0,0,0,1.31-.53,4.31,4.31,0,0,0,1.25-1,4.6,4.6,0,0,0,.66-1.08,4.66,4.66,0,0,0,.31-1.56A5.5,5.5,0,0,0,13.38,10.67ZM3.52,2.79s0,0,0,0c1.12,0,2.24,0,3.36,0a3.51,3.51,0,0,1,1.2.19,1.51,1.51,0,0,1,.94.81,1.81,1.81,0,0,1,.16.73,2.46,2.46,0,0,1-.12.89,1.47,1.47,0,0,1-.75.84,2.61,2.61,0,0,1-1,.27H3.58c-.05,0-.06,0-.06-.06Zm6.3,9A1.65,1.65,0,0,1,8.8,13a3.24,3.24,0,0,1-1,.25l-.75,0H3.58c-.05,0-.06,0-.06-.07V8.94s0-.07.06-.07H7.33A3.62,3.62,0,0,1,8.46,9a2.37,2.37,0,0,1,.81.44,1.68,1.68,0,0,1,.52.89A3.11,3.11,0,0,1,9.82,11.75Z"/><path class="cls-1" d="M25.27,8.56a6.68,6.68,0,0,0-.84-2.24,5.24,5.24,0,0,0-2.25-2,5.34,5.34,0,0,0-1.71-.45,6.41,6.41,0,0,0-1.75,0,5.67,5.67,0,0,0-3.87,2.49,6.24,6.24,0,0,0-1,3A7.91,7.91,0,0,0,14,11.25a6.05,6.05,0,0,0,.8,2.17,5,5,0,0,0,1.68,1.71,6,6,0,0,0,2.76.85,2.64,2.64,0,0,1,.28,0h.63c.16,0,.31,0,.46,0a6.44,6.44,0,0,0,1.68-.4,4.46,4.46,0,0,0,2-1.53,6.57,6.57,0,0,0,.88-1.73,1.77,1.77,0,0,1,.06-.17H22.44a.06.06,0,0,0-.06,0,.94.94,0,0,1-.15.32,2.66,2.66,0,0,1-1.47,1,3.58,3.58,0,0,1-1.92,0A2.14,2.14,0,0,1,17.3,12.1a3.74,3.74,0,0,1-.22-1c0-.13,0-.25,0-.38s0,0,0,0h8.29a0,0,0,0,0,0,0c0-.05,0-.09,0-.14A8,8,0,0,0,25.27,8.56Zm-3.11.12H17.11c-.07,0-.07,0-.06-.06a3.29,3.29,0,0,1,.24-1A2.34,2.34,0,0,1,19,6.28a3.38,3.38,0,0,1,1.55,0,1.9,1.9,0,0,1,1.17.9,4.28,4.28,0,0,1,.47,1.23,1.16,1.16,0,0,0,0,.18S22.21,8.68,22.16,8.68Z"/><path class="cls-1" d="M0,0H0V16H0V0Z"/><path class="cls-1" d="M19.73,2.61H16.56s-.06,0-.06-.06V.88c0-.05,0-.06.06-.06h6.35s.06,0,.06.06c0,.56,0,1.11,0,1.67,0,.05,0,.06-.06.06Z"/></g></g></svg>