<svg xmlns="http://www.w3.org/2000/svg" viewBox="0 0 16 16"><defs><style>.cls-1{fill:#fff;}</style></defs><g id="Layer_2" data-name="Layer 2"><g id="Layer_1-2" data-name="Layer 1"><rect class="cls-1" width="16" height="16" rx="1.12"/><polygon points="12 3.4 12 7.18 9.87 5.95 9.87 4.63 8.01 3.56 6.15 4.63 6.15 5.95 4.02 7.18 4.02 3.4 8.01 1.09 12 3.4"/><polygon points="9.87 11.38 12 12.61 12 12.61 8.01 14.91 4.02 12.61 4.02 12.61 6.15 11.38 6.15 11.38 8.01 12.45 9.87 11.38 9.87 11.38"/><polygon points="12 8 12 11.79 9.87 10.56 9.87 9.24 8.01 10.31 6.15 9.24 6.15 10.56 4.02 11.79 4.02 8 6.15 6.77 6.15 6.78 8.01 7.85 9.87 6.78 9.87 6.77 12 8"/></g></g></svg>