<svg xmlns="http://www.w3.org/2000/svg" viewBox="0 0 28.87 50"><defs><style>.cls-1{fill:#1d1d1d;}</style></defs><g id="Layer_2" data-name="Layer 2"><g id="Layer_2-2" data-name="Layer 2"><path class="cls-1" d="M14.43.16h0Z"/><path class="cls-1" d="M14.42.16Z"/><polygon class="cls-1" points="28.87 8.33 28.87 22.03 21.16 17.58 21.16 12.79 14.44 8.9 7.71 12.79 7.71 17.58 0 22.03 0 8.33 14.44 0 28.87 8.33"/><polygon class="cls-1" points="21.16 37.21 28.87 41.66 28.87 41.67 14.44 50 0 41.67 0 41.66 7.71 37.21 7.71 37.21 14.44 41.1 21.16 37.21 21.16 37.21"/><polygon class="cls-1" points="28.87 25 28.87 38.69 21.16 34.24 21.16 29.45 14.44 33.34 7.71 29.45 7.71 34.24 0 38.69 0 25 7.71 20.55 7.71 20.55 14.44 24.43 21.16 20.55 21.16 20.55 28.87 25"/></g></g></svg>