<svg xmlns="http://www.w3.org/2000/svg" viewBox="0 0 20.37 16"><defs><style>.cls-1{fill:#1d1d1d;}</style></defs><g id="Layer_2" data-name="Layer 2"><g id="Layer_1-2" data-name="Layer 1"><path class="cls-1" d="M20.37,1.56v.59A7.66,7.66,0,0,1,20.1,3a5.07,5.07,0,0,1-1.83,2Q15.45,7,12.62,9A18.59,18.59,0,0,1,11,10,1.75,1.75,0,0,1,9.3,10a9.26,9.26,0,0,1-1-.6Q5.17,7.19,2.07,5A4.83,4.83,0,0,1,0,2.31V1.72s0-.05,0-.07A1.74,1.74,0,0,1,2,0H18.48a1.81,1.81,0,0,1,1.66,1A3.67,3.67,0,0,1,20.37,1.56Z"/><path class="cls-1" d="M14,9.79l-.68.49a8.32,8.32,0,0,1-1.87,1.09,2.86,2.86,0,0,1-2.11.12,11.63,11.63,0,0,1-1.55-.75c-.47-.28-.9-.63-1.33-.94L.65,15.57l.16.12A1.87,1.87,0,0,0,1.92,16H18.7a1.65,1.65,0,0,0,1-.43Z"/><path class="cls-1" d="M0,5.18A33.66,33.66,0,0,0,3.87,8c.39.29.8.55,1.21.84L5,9l-4.9,4.9L0,13.93Z"/><path class="cls-1" d="M20.37,13.93l-.49-.47L15.44,9l-.18-.13.19-.14c1.21-.83,2.42-1.65,3.62-2.49.46-.32.86-.71,1.3-1.07Z"/><path class="cls-1" d="M14,9.79l5.76,5.77a1.65,1.65,0,0,1-1,.43H1.92a1.87,1.87,0,0,1-1.11-.31l-.16-.12L6.42,9.8c.43.31.86.66,1.33.94a11.63,11.63,0,0,0,1.55.75,2.86,2.86,0,0,0,2.11-.12,8.32,8.32,0,0,0,1.87-1.09Z"/></g></g></svg>