<svg xmlns="http://www.w3.org/2000/svg" viewBox="0 0 16 16"><defs><style>.cls-1{fill:#a1a1a1;}</style></defs><g id="Layer_2" data-name="Layer 2"><g id="Layer_1-2" data-name="Layer 1"><path class="cls-1" d="M13.66,0H2.34A2.34,2.34,0,0,0,0,2.34V13.66A2.34,2.34,0,0,0,2.34,16H13.66A2.34,2.34,0,0,0,16,13.66V2.34A2.34,2.34,0,0,0,13.66,0ZM8,12.46A4.46,4.46,0,1,1,12.46,8,4.46,4.46,0,0,1,8,12.46ZM13.16,3.9a1,1,0,1,1,1-1A1,1,0,0,1,13.16,3.9Z"/><circle class="cls-1" cx="8" cy="8.03" r="3.18"/></g></g></svg>