<svg xmlns="http://www.w3.org/2000/svg" viewBox="0 0 22.56 16"><defs><style>.cls-1{fill:#a1a1a1;}</style></defs><g id="Layer_2" data-name="Layer 2"><g id="Layer_2-2" data-name="Layer 2"><path class="cls-1" d="M17.45,9.09a4.62,4.62,0,0,1-2.89-1.15l.21-1v0C15,5.81,15.58,4,17.45,4a2.54,2.54,0,0,1,0,5.08Zm0-7.66c-2.39,0-4.24,1.56-5,4.11A21.18,21.18,0,0,1,9.93,0H7.36V6.69a2.4,2.4,0,0,1-4.79,0V0H0V6.69a5,5,0,1,0,9.93,0V5.57a16.4,16.4,0,0,0,1.85,3L10.21,16h2.63L14,10.63a6.33,6.33,0,0,0,3.47,1,5.12,5.12,0,0,0,0-10.24Z"/></g></g></svg>